<?xml version="1.0" encoding="UTF-8"?> <svg xmlns="http://www.w3.org/2000/svg" width="287.077" height="73.132" viewBox="0 0 287.077 73.132"><g id="Group_1797" data-name="Group 1797" transform="translate(-62.001 -104.693)"><g id="Group_1797-2" data-name="Group 1797" transform="translate(62.001 104.693)"><g id="Group_1802" data-name="Group 1802" transform="translate(0 0)"><g id="Group_1797-3" data-name="Group 1797" transform="translate(79.128 16.676)"><path id="Path_322" data-name="Path 322" d="M343.283,289.933v.8q-3.942,0-2.509,3.643L348,312.529l5.972-18.236q1.155-3.524-3.484-3.563v-.8h11.985v.8q-4.46,0-3.027,3.643l7.227,18.157,6.112-18.157q1.274-3.644-2.07-3.643v-.8h7.326v.8q-3.065,0-4.26,3.643l-8.1,24.527h-1.732l-9.337-23.512L347.006,318.9h-1.732l-9.915-24.527q-1.493-3.644-4.062-3.643v-.8Z" transform="translate(-331.298 -288.738)" fill="#254c5a"></path><path id="Path_323" data-name="Path 323" d="M405.475,304a10.584,10.584,0,0,1,2.707,7.068H393.789a9.781,9.781,0,0,0,1.712,6.57,5.674,5.674,0,0,0,4.917,2.648,5.988,5.988,0,0,0,4.28-1.811,10.844,10.844,0,0,0,2.588-4.619h.637a10.847,10.847,0,0,1-3.444,6.271,9.193,9.193,0,0,1-6.211,2.25,8.975,8.975,0,0,1-6.789-2.986,10.33,10.33,0,0,1-2.748-7.326,10.9,10.9,0,0,1,2.748-7.585,9.166,9.166,0,0,1,7.167-3.126A8.877,8.877,0,0,1,405.475,304Zm-9.078-.876a5.542,5.542,0,0,0-1.434,2.09,13.483,13.483,0,0,0-.776,2.488,16.81,16.81,0,0,0-.338,2.389h9.217a12.051,12.051,0,0,0-.338-3.205,7.788,7.788,0,0,0-1.493-3.2,3.117,3.117,0,0,0-2.688-1.434A3.361,3.361,0,0,0,396.4,303.126Z" transform="translate(-346.785 -291.818)" fill="#254c5a"></path><path id="Path_324" data-name="Path 324" d="M425.558,301.946a3.375,3.375,0,0,0,1.711.4.489.489,0,0,0,.4-.6h.677l.637,5.972h-.637a6.313,6.313,0,0,0-2.031-3.942,4.289,4.289,0,0,0-1.732-.995,5.071,5.071,0,0,0-1.991-.339,3.752,3.752,0,0,0-2.568.876,2.6,2.6,0,0,0-.956,1.832,2.413,2.413,0,0,0,.717,1.911,12.868,12.868,0,0,0,3.6,1.772,21.885,21.885,0,0,1,3.862,1.592,5.735,5.735,0,0,1,2.947,5.495,7.106,7.106,0,0,1-2.09,4.759,6.556,6.556,0,0,1-5.554,1.612,11.72,11.72,0,0,1-2.449-.538q-2.409-.9-2.927-.7-.5.18-.518.936H416l-.119-6.37h.637a7.7,7.7,0,0,0,.458,1.851,5.076,5.076,0,0,0,1.195,1.573,8.143,8.143,0,0,0,4.419,2.13,5.16,5.16,0,0,0,3.623-.578,2.739,2.739,0,0,0,1.334-2.19,2.93,2.93,0,0,0-.6-2.309,4.745,4.745,0,0,0-1.792-1.215,29.473,29.473,0,0,0-3.006-1.134q-1.732-.638-2.548-.976a5.726,5.726,0,0,1-3.523-5.574,5.935,5.935,0,0,1,1.712-4.141,6.538,6.538,0,0,1,4.758-1.652A8.816,8.816,0,0,1,425.558,301.946Z" transform="translate(-354.106 -291.832)" fill="#254c5a"></path><path id="Path_325" data-name="Path 325" d="M443.9,292.058V299.4h4.121v.956H443.9v13.9a4.813,4.813,0,0,0,.817,3.165,2.183,2.183,0,0,0,2.389.419q.517-.159,1.871-.757l.318,1.1a16.453,16.453,0,0,1-2.19.936q-8.063,2.787-8.063-4.419V300.361h-2.826v-.618a8.455,8.455,0,0,0,4.2-2.767,13.469,13.469,0,0,0,2.847-4.917Z" transform="translate(-359.589 -289.311)" fill="#254c5a"></path><path id="Path_326" data-name="Path 326" d="M470.711,289.933a8.114,8.114,0,0,1,5.475,1.97,6.259,6.259,0,0,1,.119,9.476,8.258,8.258,0,0,1-5.215,2.13h1.533a7.753,7.753,0,0,1,5.514,2.29,7.309,7.309,0,0,1,2.309,5.435,7.183,7.183,0,0,1-2.309,5.4,7.681,7.681,0,0,1-5.514,2.269H454.645v-.8q3.643.041,3.643-3.6V294.372q0-3.563-3.643-3.643v-.8Zm-7.366,13.3h4.1a5.239,5.239,0,0,0,4.181-1.772,7.166,7.166,0,0,0,0-8.859,5.241,5.241,0,0,0-4.181-1.772h-4.1Zm0,11.706a3.007,3.007,0,0,0,.966,2.22,4.361,4.361,0,0,0,3.135.946,8.356,8.356,0,0,0,5.375-1.881,6.237,6.237,0,0,0,2.35-5.146,7.943,7.943,0,0,0-1.543-5.017,4.979,4.979,0,0,0-4.151-1.991h-6.132Z" transform="translate(-364.558 -288.738)" fill="#254c5a"></path><path id="Path_327" data-name="Path 327" d="M497.956,304.364a5.677,5.677,0,0,1,5.116-2.846,7.4,7.4,0,0,1,3.643.936,2.343,2.343,0,0,1,1.393,2.05,1.864,1.864,0,0,1-.428,1.205,1.5,1.5,0,0,1-1.234.527,2.117,2.117,0,0,1-1.334-.408,3.322,3.322,0,0,1-.926-1.284,3.454,3.454,0,0,0-1.075-1.434,1.934,1.934,0,0,0-1.553-.4q-1.214.14-2.428,2.011a7.948,7.948,0,0,0-1.174,4.32v8.023q0,4.221,2.726,4.28v.677H490.49v-.677q2.687-.119,2.687-4.28v-10.75q0-3.424-2.687-3.006v-.677l6.927-1.115A5.03,5.03,0,0,1,497.956,304.364Z" transform="translate(-374.223 -291.862)" fill="#254c5a"></path><path id="Path_328" data-name="Path 328" d="M514.587,299.3l7.625-1.115v15.747q.02,3.9,2.767,4.061v.7H514.587V318q2.787-.139,2.767-4.061V302.787q.02-3.286-2.767-2.787ZM522.47,292a2.772,2.772,0,0,1-.806,2.03,2.663,2.663,0,0,1-1.971.817,2.766,2.766,0,0,1-2-.817,2.72,2.72,0,0,1-.836-2.03,2.692,2.692,0,0,1,.836-2.021,2.786,2.786,0,0,1,2-.806A2.9,2.9,0,0,1,522.47,292Z" transform="translate(-380.721 -288.532)" fill="#254c5a"></path><path id="Path_329" data-name="Path 329" d="M543.947,316.546a9.336,9.336,0,0,1-6.033,2.35,7.866,7.866,0,0,1-6.251-2.707q-2.328-2.707-2.329-7.506a11.449,11.449,0,0,1,2.548-7.764,7.822,7.822,0,0,1,6.251-2.966,9.785,9.785,0,0,1,5.814,1.991v-6.83q0-3.443-2.748-2.906v-.716l7.486-1.195V313.66q.019,3.4,2.886,2.927v.677l-6.889,1.672A3.908,3.908,0,0,1,543.947,316.546ZM535.506,301.8a15.305,15.305,0,0,0,.179,13.138q1.631,2.688,4.021,2.569a4.643,4.643,0,0,0,2.886-1.473,5.261,5.261,0,0,0,1.354-3.7v-10.67a6.248,6.248,0,0,0-1.911-1.573,5.052,5.052,0,0,0-2.528-.716A4.42,4.42,0,0,0,535.506,301.8Z" transform="translate(-384.697 -288.297)" fill="#254c5a"></path><path id="Path_330" data-name="Path 330" d="M580.387,298.863A2.483,2.483,0,0,1,582,300.455a1.844,1.844,0,0,1-.129,1.315,1.439,1.439,0,0,1-1.065.8,2.086,2.086,0,0,1-1.374-.139,3.865,3.865,0,0,1-1.214-.936,5.333,5.333,0,0,0-1.453-1.214,1.642,1.642,0,0,0-1.294-.08,2.3,2.3,0,0,0-1.294.936,7.4,7.4,0,0,1,3.982,2.309,6.262,6.262,0,0,1,1.454,4.26,6.607,6.607,0,0,1-2.708,5.216,10.3,10.3,0,0,1-6.411,2.011,10.731,10.731,0,0,1-4.936-1.075v-.08a3.557,3.557,0,0,0-1.215,1.374,2,2,0,0,0-.278,1.553q.417,1.433,2.886,1.433h8.122q7.7,0,7.744,5.892,0,3.763-4.359,6.073a17.637,17.637,0,0,1-8.043,1.871,14.893,14.893,0,0,1-7.446-1.474,4.784,4.784,0,0,1-2.071-2.03,5.491,5.491,0,0,1-.6-2.687,5.659,5.659,0,0,1,1.772-4.061,4.455,4.455,0,0,1-1.144-1.911,3.816,3.816,0,0,1-.11-1.771q.556-2.689,4.2-4.54a7.652,7.652,0,0,1-2.429-2.409,5.741,5.741,0,0,1-.955-3.185,6.39,6.39,0,0,1,2.568-5.176,9.812,9.812,0,0,1,6.529-2.09,11.64,11.64,0,0,1,2.27.259,6.617,6.617,0,0,1,7.386-2.03Zm-19.172,26.776a4.212,4.212,0,0,0,2.131,3.883q2.209,1.413,6.987,1.294a14.464,14.464,0,0,0,8.062-2.369,4.982,4.982,0,0,0,1.255-1.334,2.851,2.851,0,0,0,.437-1.682,1.859,1.859,0,0,0-.8-1.483,4.046,4.046,0,0,0-2.469-.657h-9.815a8.284,8.284,0,0,1-2.468-.278,7.7,7.7,0,0,1-1.871-.876A5.057,5.057,0,0,0,561.215,325.638Zm6.371-22.2a8.893,8.893,0,0,0-1.075,4.5,7.838,7.838,0,0,0,1.135,4.44,3.469,3.469,0,0,0,2.946,1.732,3.339,3.339,0,0,0,2.847-1.851,7.712,7.712,0,0,0,1.254-4.56q-.021-3.583-1.692-5.335a3.324,3.324,0,0,0-2.409-.936A3.264,3.264,0,0,0,567.586,303.441Z" transform="translate(-393.047 -291.039)" fill="#254c5a"></path><path id="Path_331" data-name="Path 331" d="M605.669,304a10.584,10.584,0,0,1,2.707,7.068H593.983a9.773,9.773,0,0,0,1.712,6.57,5.673,5.673,0,0,0,4.917,2.648,5.99,5.99,0,0,0,4.281-1.811,10.848,10.848,0,0,0,2.588-4.619h.636a10.847,10.847,0,0,1-3.444,6.271,9.2,9.2,0,0,1-6.211,2.25,8.974,8.974,0,0,1-6.789-2.986,10.33,10.33,0,0,1-2.747-7.326,10.9,10.9,0,0,1,2.747-7.585,9.165,9.165,0,0,1,7.166-3.126A8.878,8.878,0,0,1,605.669,304Zm-9.077-.876a5.526,5.526,0,0,0-1.434,2.09,13.479,13.479,0,0,0-.777,2.488,17.124,17.124,0,0,0-.338,2.389h9.217a12.013,12.013,0,0,0-.338-3.205,7.775,7.775,0,0,0-1.493-3.2,3.116,3.116,0,0,0-2.688-1.434A3.361,3.361,0,0,0,596.591,303.126Z" transform="translate(-400.766 -291.818)" fill="#254c5a"></path></g><g id="Group_1798" data-name="Group 1798" transform="translate(228.888 60.965)"><path id="Path_332" data-name="Path 332" d="M545.285,349.5q1.082.37,1.147-.348h.315l.186,3.423-.3.033a3.741,3.741,0,0,0-3.932-3.189,3.371,3.371,0,0,0-2.874,1.712,7.186,7.186,0,0,0-1.1,4,9.579,9.579,0,0,0,.387,2.818,4,4,0,0,0,1.244,1.938,3.092,3.092,0,0,0,2.115.751,2.564,2.564,0,0,0,1.857-.6,2.076,2.076,0,0,0,.686-1.639v-.42a1.793,1.793,0,0,0-1.6-1.865v-.355h5.3v.355a1.769,1.769,0,0,0-1.583,1.865v1.38a6.864,6.864,0,0,1-1.929,1.18,7.569,7.569,0,0,1-2.705.54,5.845,5.845,0,0,1-6.152-5.95,6.218,6.218,0,0,1,.8-3.068,5.787,5.787,0,0,1,2.236-2.245,6.656,6.656,0,0,1,3.383-.847A8.435,8.435,0,0,1,545.285,349.5Z" transform="translate(-536.348 -348.946)" fill="#60b0ba"></path><path id="Path_333" data-name="Path 333" d="M559.443,349.2a3.784,3.784,0,0,1,2.519.888A2.723,2.723,0,0,1,563,352.238a2.687,2.687,0,0,1-.84,1.962,3.668,3.668,0,0,1-2.115,1.017,1.783,1.783,0,0,1,1.526,1.114l1.106,2.212q1.033,2.091,2.406,2.092v.323h-4.013a5.193,5.193,0,0,0-.589-2.131l-1.025-2.3a2.236,2.236,0,0,0-.8-.921,2.314,2.314,0,0,0-1.308-.331h-.322v3.9a1.287,1.287,0,0,0,1.461,1.461v.323h-5v-.323a1.287,1.287,0,0,0,1.461-1.461v-8.162a1.3,1.3,0,0,0-1.461-1.478v-.33Zm-2.413,5.716h.759a3.2,3.2,0,0,0,2.212-.762,2.551,2.551,0,0,0,0-3.812,3.2,3.2,0,0,0-2.212-.762h-.759Z" transform="translate(-540.971 -349.009)" fill="#60b0ba"></path><path id="Path_334" data-name="Path 334" d="M579.519,350.584a5.962,5.962,0,0,1,1.582,4.335,6.108,6.108,0,0,1-.831,3.157A5.919,5.919,0,0,1,578,360.3a6.305,6.305,0,0,1-3.125.807,5.9,5.9,0,0,1-4.319-1.727,5.688,5.688,0,0,1-1.752-4.223,6.342,6.342,0,0,1,.759-3.108,5.919,5.919,0,0,1,2.237-2.252,6.467,6.467,0,0,1,3.294-.856A5.88,5.88,0,0,1,579.519,350.584Zm-6.524-.4a5.046,5.046,0,0,0-1.381,2.083,8.139,8.139,0,0,0-.484,2.875,6.792,6.792,0,0,0,1.107,3.932,3.165,3.165,0,0,0,2.656,1.6,3.022,3.022,0,0,0,1.938-.743,5.1,5.1,0,0,0,1.429-2.067,7.67,7.67,0,0,0,.533-2.922,7.193,7.193,0,0,0-.993-4.021,3.14,3.14,0,0,0-2.753-1.526A3.03,3.03,0,0,0,573,350.18Z" transform="translate(-545.1 -348.937)" fill="#60b0ba"></path><path id="Path_335" data-name="Path 335" d="M590.858,349.224v.315a1.3,1.3,0,0,0-1.461,1.478v6.321a2.913,2.913,0,0,0,.9,2.282,4.367,4.367,0,0,0,4.926.02,2.861,2.861,0,0,0,.871-2.3v-6.321a1.3,1.3,0,0,0-1.461-1.478v-.315h3.287v.315a1.289,1.289,0,0,0-1.438,1.478v6.321a3.394,3.394,0,0,1-1.258,2.818,5.207,5.207,0,0,1-3.343.993,5.278,5.278,0,0,1-3.4-.993,3.429,3.429,0,0,1-1.163-2.818v-6.321a1.3,1.3,0,0,0-1.461-1.478v-.315Z" transform="translate(-549.697 -349.014)" fill="#60b0ba"></path><path id="Path_336" data-name="Path 336" d="M608.948,349.213a3.371,3.371,0,0,1,2.438.982,3.285,3.285,0,0,1,0,4.739,3.37,3.37,0,0,1-2.438.982H606.1v3.245a1.3,1.3,0,0,0,1.462,1.478v.323h-4.982v-.323a1.3,1.3,0,0,0,1.461-1.478v-8.146q0-1.518-1.461-1.478v-.323Zm-2.851,6.339h1.356a2.623,2.623,0,0,0,1.97-.868,3.143,3.143,0,0,0,0-4.243,2.617,2.617,0,0,0-1.97-.848H606.1Z" transform="translate(-554.206 -349.011)" fill="#60b0ba"></path></g><g id="Group_1801" data-name="Group 1801"><g id="Group_1799" data-name="Group 1799"><path id="Path_337" data-name="Path 337" d="M302.586,299.62H277.011v1.169h7.534v8.677h1.377v-8.677h8.832v8.677h1.377v-8.677h6.724C302.772,300.4,302.684,300.006,302.586,299.62Z" transform="translate(-237.532 -274.674)" fill="#60b0ba"></path><path id="Path_338" data-name="Path 338" d="M261.717,282.492l1.22,1.411v2.992l.618.5-.618.5v1.215h7.534v-.6a.266.266,0,0,1,.135-.264l.554-.164.553.164a.265.265,0,0,1,.136.264v.6h8.832v-.6a.266.266,0,0,1,.135-.264l.554-.164.553.164a.265.265,0,0,1,.136.264v.6h6.095a33.028,33.028,0,0,0-63.335,0H231v-.6a.266.266,0,0,1,.135-.264l.554-.164.553.164a.265.265,0,0,1,.136.264v.6h8.832v-.6a.266.266,0,0,1,.135-.264l.554-.164.553.164a.265.265,0,0,1,.136.264v.6h7.444V287.9l-.617-.5.617-.5V283.9l1.221-1.411v.441l-.628.764V284.9h.837V283.55l.976-1.058h.7v2.586h1.919v-1.792l.8-1.176h1.255l.8,1.176v1.792h1.918v-2.586h.7l.977,1.058V284.9h.837V283.7l-.627-.764Z" transform="translate(-223.458 -265.464)" fill="#60b0ba"></path><path id="Path_339" data-name="Path 339" d="M223.956,300.789h6.813v8.677h1.377v-8.677h8.832v8.677h1.377v-8.677H249.8V299.62H224.226Q224.08,300.2,223.956,300.789Z" transform="translate(-223.226 -274.674)" fill="#60b0ba"></path><path id="Path_340" data-name="Path 340" d="M278.182,303.036l-.553-.164-.554.164a.143.143,0,0,0-.064.046v7.261h1.307V303.3A.265.265,0,0,0,278.182,303.036Z" transform="translate(-237.532 -275.551)" fill="#60b0ba"></path><path id="Path_341" data-name="Path 341" d="M281.578,303.036l-.554-.164-.554.164a.265.265,0,0,0-.135.264v7.042h1.377V303.3A.265.265,0,0,0,281.578,303.036Z" transform="translate(-238.428 -275.551)" fill="#60b0ba"></path><path id="Path_342" data-name="Path 342" d="M285,303.036l-.554-.164-.553.164a.265.265,0,0,0-.136.264v7.042h1.377V303.3A.265.265,0,0,0,285,303.036Z" transform="translate(-239.351 -275.551)" fill="#60b0ba"></path><path id="Path_343" data-name="Path 343" d="M292.135,303.036l-.554-.164-.554.164a.266.266,0,0,0-.135.264v7.042h1.377V303.3A.265.265,0,0,0,292.135,303.036Z" transform="translate(-241.275 -275.551)" fill="#60b0ba"></path><path id="Path_344" data-name="Path 344" d="M295.557,303.036l-.554-.164-.553.164a.265.265,0,0,0-.136.264v7.042h1.377V303.3A.265.265,0,0,0,295.557,303.036Z" transform="translate(-242.198 -275.551)" fill="#60b0ba"></path><path id="Path_345" data-name="Path 345" d="M298.979,303.036l-.554-.164-.553.164a.265.265,0,0,0-.136.264v7.042h1.378V303.3A.266.266,0,0,0,298.979,303.036Z" transform="translate(-243.12 -275.551)" fill="#60b0ba"></path><path id="Path_346" data-name="Path 346" d="M306.114,303.036l-.554-.164-.554.164a.266.266,0,0,0-.135.264v7.042h1.377V303.3A.265.265,0,0,0,306.114,303.036Z" transform="translate(-245.044 -275.551)" fill="#60b0ba"></path><path id="Path_347" data-name="Path 347" d="M309.536,303.036l-.554-.164-.553.164a.265.265,0,0,0-.136.264v7.042h1.377V303.3A.265.265,0,0,0,309.536,303.036Z" transform="translate(-245.967 -275.551)" fill="#60b0ba"></path><path id="Path_348" data-name="Path 348" d="M312.445,302.884l-.039-.012-.554.164a.266.266,0,0,0-.136.264v7.042h1.18c.031-.584.048-1.172.048-1.764A33.186,33.186,0,0,0,312.445,302.884Z" transform="translate(-246.89 -275.551)" fill="#60b0ba"></path><path id="Path_349" data-name="Path 349" d="M224.138,303.036l-.554-.164-.134.039a33.162,33.162,0,0,0-.494,5.667c0,.592.018,1.18.048,1.764h1.269V303.3A.265.265,0,0,0,224.138,303.036Z" transform="translate(-222.956 -275.551)" fill="#60b0ba"></path><path id="Path_350" data-name="Path 350" d="M227.537,303.036l-.554-.164-.553.164a.265.265,0,0,0-.136.264v7.042h1.377V303.3A.265.265,0,0,0,227.537,303.036Z" transform="translate(-223.856 -275.551)" fill="#60b0ba"></path><path id="Path_351" data-name="Path 351" d="M230.959,303.036l-.553-.164-.554.164a.266.266,0,0,0-.136.264v7.042H231.1V303.3A.266.266,0,0,0,230.959,303.036Z" transform="translate(-224.779 -275.551)" fill="#60b0ba"></path><path id="Path_352" data-name="Path 352" d="M238.094,303.036l-.554-.164-.554.164a.265.265,0,0,0-.135.264v7.042h1.377V303.3A.265.265,0,0,0,238.094,303.036Z" transform="translate(-226.703 -275.551)" fill="#60b0ba"></path><path id="Path_353" data-name="Path 353" d="M241.516,303.036l-.554-.164-.553.164a.265.265,0,0,0-.136.264v7.042h1.377V303.3A.265.265,0,0,0,241.516,303.036Z" transform="translate(-227.626 -275.551)" fill="#60b0ba"></path><path id="Path_354" data-name="Path 354" d="M244.938,303.036l-.553-.164-.554.164a.266.266,0,0,0-.136.264v7.042h1.378V303.3A.265.265,0,0,0,244.938,303.036Z" transform="translate(-228.548 -275.551)" fill="#60b0ba"></path><path id="Path_355" data-name="Path 355" d="M252.073,303.036l-.554-.164-.554.164a.265.265,0,0,0-.135.264v7.042h1.377V303.3A.265.265,0,0,0,252.073,303.036Z" transform="translate(-230.472 -275.551)" fill="#60b0ba"></path><path id="Path_356" data-name="Path 356" d="M255.5,303.036l-.554-.164-.553.164a.265.265,0,0,0-.136.264v7.042h1.377V303.3A.265.265,0,0,0,255.5,303.036Z" transform="translate(-231.395 -275.551)" fill="#60b0ba"></path><path id="Path_357" data-name="Path 357" d="M257.811,303.036a.265.265,0,0,0-.135.264v7.042h1.217v-7.314l-.528-.156Z" transform="translate(-232.318 -275.551)" fill="#60b0ba"></path></g><g id="Group_1800" data-name="Group 1800" transform="translate(1.299 16.646)"><path id="Path_358" data-name="Path 358" d="M237.8,344.146h43.656q.683-.6,1.331-1.242h-46.32Q237.115,343.543,237.8,344.146Z" transform="translate(-227.897 -302.991)" fill="#254c5a"></path><path id="Path_359" data-name="Path 359" d="M234.777,341.136h48.241c.345-.369.684-.744,1.012-1.129H233.765C234.093,340.392,234.432,340.767,234.777,341.136Z" transform="translate(-227.169 -302.21)" fill="#254c5a"></path><path id="Path_360" data-name="Path 360" d="M232.26,338.127h52.052q.392-.5.764-1.017H231.5Q231.869,337.626,232.26,338.127Z" transform="translate(-226.558 -301.429)" fill="#254c5a"></path><path id="Path_361" data-name="Path 361" d="M265.147,355.525a33.072,33.072,0,0,0,8.206-1.033H256.941A33.072,33.072,0,0,0,265.147,355.525Z" transform="translate(-233.418 -306.116)" fill="#254c5a"></path><path id="Path_362" data-name="Path 362" d="M241.49,347.155h38.019q.916-.648,1.786-1.354H239.7Q240.573,346.508,241.49,347.155Z" transform="translate(-228.771 -303.772)" fill="#254c5a"></path><path id="Path_363" data-name="Path 363" d="M230.14,335.118h55.253q.292-.447.573-.9h-56.4Q229.846,334.671,230.14,335.118Z" transform="translate(-226.037 -300.647)" fill="#254c5a"></path><path id="Path_364" data-name="Path 364" d="M246.2,350.164h30.752q1.289-.68,2.511-1.466H243.686Q244.905,349.486,246.2,350.164Z" transform="translate(-229.844 -304.553)" fill="#254c5a"></path><path id="Path_365" data-name="Path 365" d="M252.9,353.173h20.164a32.848,32.848,0,0,0,4-1.578H248.893A32.846,32.846,0,0,0,252.9,353.173Z" transform="translate(-231.248 -305.334)" fill="#254c5a"></path><path id="Path_366" data-name="Path 366" d="M298.825,313.1l-.194-.058-1.154-.34-1.122-.331-1.377-.406-3.833-1.131-1.378-.406-1.122-.331-.738-.218-.639.188-1.122.331-1.378.406-3.834,1.131-1.377.406-1.122.331-1.252.369-.194.058a4.053,4.053,0,0,0-2.359,2.948v-5.666l.618-.5-.618-.5v-15.34l.618-.5-.618-.5v-2.992l-1.22-1.411v.441l.627.764v1.205H273.2V289.7l-.977-1.058h-.7v2.586h-1.918v-1.792l-.8-1.176h-.627V320.5h28.959a31.038,31.038,0,0,0,2.778-6.727A2.641,2.641,0,0,0,298.825,313.1Z" transform="translate(-236.448 -288.255)" fill="#254c5a"></path><path id="Path_367" data-name="Path 367" d="M250.01,325.424v-1.512a3.981,3.981,0,0,0-2.319-2.825l-.194-.058-1.2-.354-1.122-.331-1.377-.406-3.833-1.131-1.378-.406-1.122-.331-.689-.2-.689.2-1.122.331-1.377.406-3.833,1.131-1.378.406-1.122.331-1.2.354-.194.058a2.668,2.668,0,0,0-1.12.7,31.05,31.05,0,0,0,2.769,6.7H250.01Z" transform="translate(-224.734 -296.24)" fill="#254c5a"></path></g></g></g></g></g></svg> 